<?xml version="1.0" encoding="UTF-8"?>
<svg xmlns="http://www.w3.org/2000/svg" xmlns:xlink="http://www.w3.org/1999/xlink" width="50px" height="50px" viewBox="0 0 50 50" version="1.1">
<g id="surface1">
<path style=" stroke:none;fill-rule:nonzero;fill:rgb(0%,0%,0%);fill-opacity:1;" d="M 23.46875 4.570312 C 23.4375 4.617188 23.53125 4.660156 23.660156 4.660156 C 23.789062 4.671875 23.867188 4.640625 23.839844 4.589844 C 23.78125 4.480469 23.53125 4.46875 23.46875 4.570312 Z M 23.46875 4.570312 "/>
<path style=" stroke:none;fill-rule:nonzero;fill:rgb(0%,0%,0%);fill-opacity:1;" d="M 24.101562 4.570312 C 24.101562 4.617188 24.382812 4.640625 24.71875 4.617188 C 25.789062 4.570312 25.890625 4.53125 24.980469 4.507812 C 24.492188 4.507812 24.101562 4.53125 24.101562 4.570312 Z M 24.101562 4.570312 "/>
<path style=" stroke:none;fill-rule:nonzero;fill:rgb(0%,0%,0%);fill-opacity:1;" d="M 26.898438 4.648438 C 27.3125 4.730469 27.730469 4.769531 27.828125 4.742188 C 27.921875 4.710938 28 4.730469 28 4.789062 C 28 4.851562 28.140625 4.898438 28.320312 4.898438 C 28.882812 4.898438 28.480469 4.699219 27.839844 4.660156 C 27.519531 4.640625 27 4.589844 26.699219 4.5625 C 26.25 4.519531 26.289062 4.53125 26.898438 4.648438 Z M 26.898438 4.648438 "/>
<path style=" stroke:none;fill-rule:nonzero;fill:rgb(0%,0%,0%);fill-opacity:1;" d="M 22.53125 4.671875 C 22.140625 4.699219 22 4.75 22 4.859375 C 22 4.960938 22.0625 5 22.179688 4.960938 C 22.269531 4.929688 22.519531 4.882812 22.730469 4.839844 C 22.929688 4.8125 23.132812 4.742188 23.160156 4.6875 C 23.1875 4.640625 23.179688 4.609375 23.132812 4.617188 C 23.089844 4.632812 22.8125 4.648438 22.53125 4.671875 Z M 22.53125 4.671875 "/>
<path style=" stroke:none;fill-rule:nonzero;fill:rgb(0%,0%,0%);fill-opacity:1;" d="M 21.351562 4.96875 C 21.242188 5 21.109375 5.0625 21.0625 5.109375 C 20.910156 5.25 21.3125 5.210938 21.648438 5.050781 C 21.867188 4.949219 21.898438 4.921875 21.75 4.921875 C 21.640625 4.921875 21.460938 4.9375 21.351562 4.96875 Z M 21.351562 4.96875 "/>
<path style=" stroke:none;fill-rule:nonzero;fill:rgb(0%,0%,0%);fill-opacity:1;" d="M 28.851562 5 C 28.867188 5.039062 29.109375 5.148438 29.367188 5.242188 C 29.632812 5.339844 30.101562 5.550781 30.410156 5.710938 C 31.050781 6.039062 31.382812 6.089844 31.007812 5.8125 C 30.867188 5.710938 30.699219 5.648438 30.609375 5.679688 C 30.53125 5.710938 30.492188 5.6875 30.53125 5.632812 C 30.570312 5.570312 30.390625 5.4375 30.109375 5.320312 C 29.570312 5.078125 28.78125 4.882812 28.851562 5 Z M 28.851562 5 "/>
<path style=" stroke:none;fill-rule:nonzero;fill:rgb(0%,0%,0%);fill-opacity:1;" d="M 20.519531 5.210938 C 20.390625 5.257812 20.242188 5.28125 20.1875 5.242188 C 20.140625 5.210938 20.101562 5.242188 20.101562 5.289062 C 20.101562 5.351562 20.050781 5.398438 19.980469 5.398438 C 19.839844 5.398438 18.601562 5.980469 18.601562 6.050781 C 18.601562 6.070312 18.671875 6.070312 18.75 6.039062 C 18.828125 6 18.898438 6.03125 18.898438 6.089844 C 18.898438 6.148438 18.828125 6.199219 18.75 6.199219 C 18.671875 6.199219 18.601562 6.242188 18.601562 6.300781 C 18.601562 6.351562 18.757812 6.320312 18.949219 6.230469 C 19.140625 6.140625 19.300781 6.03125 19.300781 5.980469 C 19.300781 5.9375 19.367188 5.898438 19.449219 5.898438 C 19.660156 5.898438 20.300781 5.578125 20.300781 5.480469 C 20.300781 5.429688 20.351562 5.421875 20.421875 5.460938 C 20.492188 5.5 20.5 5.492188 20.460938 5.421875 C 20.410156 5.339844 20.460938 5.300781 20.589844 5.300781 C 20.710938 5.300781 20.800781 5.25 20.800781 5.199219 C 20.800781 5.140625 20.789062 5.101562 20.78125 5.109375 C 20.757812 5.109375 20.640625 5.148438 20.519531 5.210938 Z M 20.519531 5.210938 "/>
<path style=" stroke:none;fill-rule:nonzero;fill:rgb(0%,0%,0%);fill-opacity:1;" d="M 26.28125 5.96875 C 26.339844 5.992188 26.460938 5.992188 26.53125 5.96875 C 26.589844 5.9375 26.539062 5.921875 26.398438 5.921875 C 26.257812 5.921875 26.210938 5.9375 26.28125 5.96875 Z M 26.28125 5.96875 "/>
<path style=" stroke:none;fill-rule:nonzero;fill:rgb(0%,0%,0%);fill-opacity:1;" d="M 31.300781 6.078125 C 31.300781 6.132812 31.410156 6.21875 31.550781 6.28125 C 31.839844 6.421875 31.890625 6.257812 31.609375 6.101562 C 31.367188 5.980469 31.300781 5.96875 31.300781 6.078125 Z M 31.300781 6.078125 "/>
<path style=" stroke:none;fill-rule:nonzero;fill:rgb(0%,0%,0%);fill-opacity:1;" d="M 17.980469 6.398438 C 17.730469 6.5625 17.410156 6.8125 17.257812 6.949219 C 17.109375 7.089844 16.960938 7.199219 16.929688 7.199219 C 16.867188 7.199219 16.339844 7.617188 15.9375 7.96875 C 15.800781 8.101562 15.648438 8.199219 15.601562 8.199219 C 15.46875 8.199219 15.289062 8.5625 15.382812 8.648438 C 15.421875 8.699219 15.398438 8.699219 15.339844 8.671875 C 15.242188 8.609375 14.859375 8.96875 14.25 9.710938 C 13.8125 10.242188 12.382812 12.640625 12.390625 12.839844 C 12.390625 12.867188 12.28125 13.148438 12.140625 13.46875 C 12 13.78125 11.910156 14.117188 11.929688 14.210938 C 11.960938 14.3125 11.929688 14.410156 11.859375 14.4375 C 11.800781 14.460938 11.828125 14.492188 11.921875 14.492188 C 12.03125 14.5 12.117188 14.398438 12.160156 14.21875 C 12.199219 14.070312 12.289062 13.820312 12.367188 13.660156 C 12.492188 13.421875 12.5 13.359375 12.382812 13.289062 C 12.269531 13.210938 12.328125 13.160156 12.519531 13.179688 C 12.617188 13.199219 12.910156 12.390625 12.839844 12.28125 C 12.800781 12.210938 12.820312 12.199219 12.890625 12.242188 C 12.949219 12.28125 13.03125 12.242188 13.078125 12.132812 C 13.117188 12.03125 13.382812 11.570312 13.648438 11.109375 C 14.507812 9.660156 16.171875 7.949219 17.601562 7.007812 C 18.25 6.578125 18.339844 6.507812 18.429688 6.269531 C 18.507812 6.050781 18.507812 6.050781 17.980469 6.398438 Z M 15.300781 8.839844 C 15.300781 8.867188 15.257812 8.921875 15.199219 8.949219 C 15.148438 8.980469 15.101562 8.960938 15.101562 8.910156 C 15.101562 8.851562 15.148438 8.800781 15.199219 8.800781 C 15.257812 8.800781 15.300781 8.820312 15.300781 8.839844 Z M 15.300781 8.839844 "/>
<path style=" stroke:none;fill-rule:nonzero;fill:rgb(0%,0%,0%);fill-opacity:1;" d="M 31.960938 6.4375 C 31.992188 6.53125 32.078125 6.601562 32.160156 6.601562 C 32.242188 6.601562 32.300781 6.632812 32.300781 6.671875 C 32.300781 6.71875 32.578125 6.96875 32.929688 7.25 C 33.9375 8.0625 34.492188 8.601562 35.140625 9.421875 C 36.519531 11.160156 36.949219 11.898438 37.257812 13.070312 C 37.71875 14.769531 37.898438 15.617188 38.007812 16.492188 C 38.070312 17.019531 38.148438 17.660156 38.199219 17.921875 C 38.269531 18.410156 38.171875 18.789062 38.0625 18.4375 C 38.03125 18.328125 37.757812 17.8125 37.449219 17.257812 C 37.140625 16.699219 36.882812 16.078125 36.839844 15.8125 C 36.78125 15.460938 36.75 15.398438 36.710938 15.578125 C 36.660156 15.757812 36.480469 15.507812 35.710938 14.1875 C 34.757812 12.5625 34.28125 11.898438 34.0625 11.898438 C 33.867188 11.898438 33.351562 12.78125 33.109375 13.5 C 32.867188 14.25 32.859375 14.3125 32.960938 16.882812 L 33.03125 18.820312 L 33.257812 18.53125 C 33.390625 18.382812 33.671875 17.960938 33.867188 17.601562 C 34.382812 16.6875 34.679688 16.300781 34.882812 16.300781 C 34.96875 16.300781 35.1875 16.421875 35.351562 16.5625 L 35.648438 16.820312 L 35.289062 16.609375 C 35.089844 16.492188 34.882812 16.398438 34.820312 16.398438 C 34.757812 16.398438 34.519531 16.730469 34.289062 17.117188 C 34.0625 17.519531 33.699219 18.148438 33.492188 18.507812 C 33.269531 18.867188 33.101562 19.210938 33.101562 19.269531 C 33.101562 19.328125 33.492188 19.171875 33.980469 18.910156 C 34.960938 18.382812 35.160156 18.289062 35.230469 18.367188 C 35.257812 18.390625 34.851562 18.640625 34.3125 18.898438 C 33.78125 19.171875 33.257812 19.480469 33.171875 19.578125 C 33.007812 19.75 33.007812 19.800781 33.148438 20.199219 C 33.242188 20.449219 33.4375 20.851562 33.601562 21.101562 C 33.769531 21.359375 33.898438 21.640625 33.898438 21.730469 C 33.898438 21.949219 34.199219 22.699219 34.289062 22.699219 C 34.328125 22.699219 34.46875 22.46875 34.601562 22.1875 C 34.867188 21.617188 35.199219 21.398438 35.769531 21.410156 C 36.492188 21.421875 36.601562 21.589844 35.898438 21.589844 C 35.539062 21.601562 35.199219 21.640625 35.140625 21.679688 C 34.9375 21.800781 34.398438 22.800781 34.398438 23.03125 C 34.398438 23.46875 34.539062 23.550781 35 23.359375 C 35.242188 23.269531 35.730469 23.171875 36.089844 23.140625 L 36.75 23.101562 L 35.882812 23.289062 C 34.769531 23.53125 34.730469 23.5625 35.019531 23.867188 C 35.21875 24.089844 35.257812 24.242188 35.300781 25.179688 C 35.351562 26.242188 35.351562 26.25 35.492188 25.851562 C 35.769531 25 36.160156 24.757812 36.539062 25.1875 C 36.757812 25.429688 36.699219 25.78125 36.300781 26.648438 C 35.980469 27.339844 35.699219 27.671875 35.339844 27.757812 C 35.101562 27.820312 35.089844 27.839844 35.160156 28.390625 C 35.25 29.089844 35.25 29.648438 35.171875 30.101562 L 35.101562 30.460938 L 35.96875 30.890625 C 36.679688 31.230469 37.007812 31.328125 37.648438 31.390625 C 38.890625 31.507812 38.859375 31.519531 39.351562 30.1875 C 39.8125 28.910156 40 27.507812 40 25.550781 C 40 24.550781 39.898438 22.867188 39.839844 22.929688 C 39.820312 22.9375 39.648438 23.550781 39.449219 24.28125 C 39.132812 25.449219 39.089844 25.730469 39.109375 26.6875 C 39.117188 27.75 39.117188 27.78125 38.742188 28.53125 C 38.53125 28.949219 38.351562 29.28125 38.328125 29.257812 C 38.3125 29.25 38.4375 28.921875 38.617188 28.539062 C 38.9375 27.859375 38.949219 27.828125 38.949219 26.398438 C 38.949219 25.007812 38.960938 24.910156 39.289062 24 C 39.828125 22.460938 39.828125 22.539062 39.382812 21.28125 C 39.171875 20.660156 38.851562 19.898438 38.671875 19.601562 C 38.367188 19.078125 38.359375 18.992188 38.339844 17.898438 C 38.320312 16.730469 38.3125 16.648438 38.101562 15.5 C 37.828125 13.9375 37.03125 11.5 36.589844 10.890625 C 36.492188 10.742188 36.398438 10.589844 36.398438 10.5625 C 36.398438 10.398438 35.859375 9.699219 35.730469 9.699219 C 35.648438 9.699219 35.617188 9.648438 35.648438 9.601562 C 35.730469 9.46875 34.160156 7.898438 33.949219 7.898438 C 33.867188 7.898438 33.8125 7.859375 33.828125 7.8125 C 33.851562 7.71875 33.3125 7.25 32.699219 6.839844 C 32.507812 6.710938 32.25 6.53125 32.117188 6.4375 C 31.910156 6.289062 31.898438 6.289062 31.960938 6.4375 Z M 31.960938 6.4375 "/>
<path style=" stroke:none;fill-rule:nonzero;fill:rgb(0%,0%,0%);fill-opacity:1;" d="M 24 7.460938 C 23.1875 7.609375 22.898438 7.730469 22.898438 7.929688 C 22.898438 8.109375 22.921875 8.117188 23.078125 7.980469 C 23.390625 7.710938 23.570312 7.640625 23.382812 7.867188 C 23.199219 8.070312 23.148438 8.46875 23.257812 8.859375 C 23.3125 9.050781 23.390625 9.078125 23.882812 9.070312 C 24.199219 9.070312 25.171875 9.089844 26.050781 9.117188 L 27.660156 9.160156 L 27.929688 8.53125 C 28.078125 8.179688 28.179688 7.851562 28.148438 7.800781 C 28.03125 7.601562 27.28125 7.492188 25.800781 7.449219 C 24.949219 7.429688 24.140625 7.429688 24 7.460938 Z M 24 7.460938 "/>
<path style=" stroke:none;fill-rule:nonzero;fill:rgb(0%,0%,0%);fill-opacity:1;" d="M 22.480469 8.359375 C 22.398438 8.660156 22.179688 9.019531 21.867188 9.367188 C 21.589844 9.6875 21.410156 9.992188 21.4375 10.070312 C 21.46875 10.148438 21.460938 10.1875 21.410156 10.148438 C 21.25 10.0625 21.179688 10.882812 21.25 12.050781 C 21.320312 13.109375 21.339844 13.199219 21.519531 13.199219 C 21.882812 13.199219 22.679688 12.679688 23.101562 12.1875 C 23.328125 11.921875 23.550781 11.699219 23.609375 11.699219 C 23.75 11.699219 23.71875 12.03125 23.550781 12.429688 C 23.46875 12.632812 23.398438 12.839844 23.398438 12.890625 C 23.398438 13.039062 23.699219 12.910156 24.117188 12.570312 C 24.449219 12.300781 24.53125 12.28125 24.75 12.382812 C 24.980469 12.480469 25 12.46875 25 12.269531 C 25 12 24.828125 11.730469 24.039062 10.769531 C 23.507812 10.117188 23.382812 9.867188 23.101562 9.007812 C 22.929688 8.449219 22.742188 7.980469 22.6875 7.949219 C 22.640625 7.910156 22.550781 8.101562 22.480469 8.359375 Z M 22.480469 8.359375 "/>
<path style=" stroke:none;fill-rule:nonzero;fill:rgb(0%,0%,0%);fill-opacity:1;" d="M 28.269531 8 C 28.242188 8.078125 28.160156 8.328125 28.101562 8.550781 C 27.890625 9.230469 27.300781 10.257812 26.789062 10.851562 C 26.007812 11.75 25.839844 12.230469 26.148438 12.640625 C 26.289062 12.820312 26.300781 12.820312 26.398438 12.5625 C 26.449219 12.410156 26.5 12.21875 26.5 12.140625 C 26.5 11.882812 26.699219 11.601562 26.882812 11.601562 C 26.980469 11.601562 27.171875 11.820312 27.359375 12.179688 C 27.679688 12.769531 28.660156 13.6875 28.800781 13.53125 C 28.851562 13.492188 28.898438 13.359375 28.929688 13.25 C 28.980469 13.050781 28.980469 13.0625 28.992188 13.257812 C 28.992188 13.367188 28.9375 13.539062 28.867188 13.648438 C 28.742188 13.820312 28.710938 13.820312 28.28125 13.519531 C 28.03125 13.351562 27.699219 13.0625 27.550781 12.882812 C 27.359375 12.648438 27.289062 12.609375 27.328125 12.75 C 27.367188 12.859375 27.460938 13.257812 27.550781 13.648438 C 27.632812 14.03125 27.71875 14.449219 27.75 14.5625 C 27.789062 14.742188 27.910156 14.800781 28.421875 14.882812 C 29.757812 15.109375 31.242188 15.210938 31.851562 15.101562 C 32.179688 15.050781 32.480469 15 32.53125 15 C 32.570312 15 32.601562 14.867188 32.601562 14.71875 C 32.601562 14.410156 32.980469 13.21875 33.242188 12.71875 L 33.398438 12.410156 L 32.980469 12.117188 C 32.390625 11.71875 31.648438 11.359375 30.730469 11.007812 C 30.300781 10.851562 29.882812 10.6875 29.789062 10.660156 C 29.671875 10.601562 29.601562 10.742188 29.449219 11.339844 C 29.210938 12.320312 29.132812 12.25 29.351562 11.25 C 29.601562 10.140625 29.519531 9.757812 28.960938 9.28125 C 28.640625 9 28.5 8.800781 28.492188 8.617188 C 28.46875 8.199219 28.339844 7.820312 28.269531 8 Z M 29.171875 12.421875 C 29.140625 12.5 29.109375 12.46875 29.109375 12.359375 C 29.101562 12.25 29.132812 12.1875 29.160156 12.230469 C 29.1875 12.257812 29.199219 12.351562 29.171875 12.421875 Z M 29.070312 12.921875 C 29.039062 12.992188 29.019531 12.9375 29.019531 12.800781 C 29.019531 12.660156 29.039062 12.609375 29.070312 12.671875 C 29.089844 12.742188 29.089844 12.859375 29.070312 12.921875 Z M 29.070312 12.921875 "/>
<path style=" stroke:none;fill-rule:nonzero;fill:rgb(0%,0%,0%);fill-opacity:1;" d="M 31.910156 8.132812 C 31.929688 8.140625 32.039062 8.21875 32.148438 8.300781 C 32.339844 8.4375 32.339844 8.4375 32.210938 8.269531 C 32.140625 8.179688 32.03125 8.101562 31.96875 8.101562 C 31.910156 8.101562 31.890625 8.109375 31.910156 8.132812 Z M 31.910156 8.132812 "/>
<path style=" stroke:none;fill-rule:nonzero;fill:rgb(0%,0%,0%);fill-opacity:1;" d="M 32.601562 8.640625 C 32.601562 8.660156 32.679688 8.742188 32.78125 8.8125 C 32.929688 8.9375 32.9375 8.929688 32.8125 8.769531 C 32.679688 8.609375 32.601562 8.5625 32.601562 8.640625 Z M 32.601562 8.640625 "/>
<path style=" stroke:none;fill-rule:nonzero;fill:rgb(0%,0%,0%);fill-opacity:1;" d="M 15.898438 9.25 C 15.660156 9.5 15.480469 9.699219 15.507812 9.699219 C 15.539062 9.699219 15.757812 9.5 16 9.25 C 16.242188 9 16.421875 8.800781 16.390625 8.800781 C 16.359375 8.800781 16.140625 9 15.898438 9.25 Z M 15.898438 9.25 "/>
<path style=" stroke:none;fill-rule:nonzero;fill:rgb(0%,0%,0%);fill-opacity:1;" d="M 16.242188 9.820312 C 15.609375 10.480469 15.339844 10.800781 15.429688 10.800781 C 15.460938 10.800781 15.800781 10.4375 16.199219 10 C 16.601562 9.5625 16.898438 9.199219 16.882812 9.199219 C 16.859375 9.199219 16.570312 9.480469 16.242188 9.820312 Z M 16.242188 9.820312 "/>
<path style=" stroke:none;fill-rule:nonzero;fill:rgb(0%,0%,0%);fill-opacity:1;" d="M 25.0625 9.367188 C 24.96875 9.46875 24.992188 9.800781 25.089844 9.800781 C 25.199219 9.800781 25.300781 9.410156 25.199219 9.351562 C 25.160156 9.328125 25.101562 9.328125 25.0625 9.367188 Z M 25.0625 9.367188 "/>
<path style=" stroke:none;fill-rule:nonzero;fill:rgb(0%,0%,0%);fill-opacity:1;" d="M 25.882812 9.648438 C 25.898438 9.789062 25.980469 9.898438 26.050781 9.898438 C 26.132812 9.898438 26.148438 9.8125 26.117188 9.648438 C 26.101562 9.507812 26.019531 9.398438 25.949219 9.398438 C 25.867188 9.398438 25.851562 9.492188 25.882812 9.648438 Z M 25.882812 9.648438 "/>
<path style=" stroke:none;fill-rule:nonzero;fill:rgb(0%,0%,0%);fill-opacity:1;" d="M 29.660156 10.007812 C 29.699219 10.199219 29.75 10.382812 29.789062 10.410156 C 29.820312 10.449219 30.1875 10.601562 30.601562 10.75 C 31.46875 11.070312 32.5625 11.609375 33.132812 11.980469 L 33.519531 12.242188 L 33.71875 12 L 33.910156 11.769531 L 33.078125 11.289062 C 32.421875 10.898438 31.351562 10.398438 29.730469 9.730469 C 29.632812 9.6875 29.617188 9.769531 29.660156 10.007812 Z M 29.660156 10.007812 "/>
<path style=" stroke:none;fill-rule:nonzero;fill:rgb(0%,0%,0%);fill-opacity:1;" d="M 15.28125 9.96875 C 15.101562 10.179688 14.96875 10.398438 15.03125 10.398438 C 15.050781 10.398438 15.160156 10.257812 15.28125 10.101562 C 15.53125 9.769531 15.519531 9.6875 15.28125 9.96875 Z M 15.28125 9.96875 "/>
<path style=" stroke:none;fill-rule:nonzero;fill:rgb(0%,0%,0%);fill-opacity:1;" d="M 20.101562 10.550781 C 19.519531 10.851562 19 11.101562 18.9375 11.101562 C 18.78125 11.101562 17.300781 12.078125 17.300781 12.171875 C 17.300781 12.21875 17.339844 12.3125 17.382812 12.382812 C 17.4375 12.46875 17.601562 12.398438 17.980469 12.109375 C 18.269531 11.898438 19.089844 11.460938 19.800781 11.140625 C 20.890625 10.648438 21.109375 10.519531 21.1875 10.28125 C 21.25 10.132812 21.257812 10 21.21875 10 C 21.179688 10.007812 20.679688 10.25 20.101562 10.550781 Z M 20.101562 10.550781 "/>
<path style=" stroke:none;fill-rule:nonzero;fill:rgb(0%,0%,0%);fill-opacity:1;" d="M 25 10.070312 C 25 10.179688 25.671875 10.398438 25.859375 10.359375 C 26.320312 10.242188 26.132812 10.050781 25.550781 10.050781 C 25.25 10.050781 25 10.0625 25 10.070312 Z M 25 10.070312 "/>
<path style=" stroke:none;fill-rule:nonzero;fill:rgb(0%,0%,0%);fill-opacity:1;" d="M 14.46875 11.117188 C 14.019531 11.820312 13.46875 12.800781 13.539062 12.800781 C 13.570312 12.800781 13.710938 12.589844 13.859375 12.320312 C 14.117188 11.859375 14.390625 11.421875 14.742188 10.867188 C 14.839844 10.71875 14.898438 10.601562 14.867188 10.601562 C 14.839844 10.601562 14.660156 10.839844 14.46875 11.117188 Z M 14.46875 11.117188 "/>
<path style=" stroke:none;fill-rule:nonzero;fill:rgb(0%,0%,0%);fill-opacity:1;" d="M 19.710938 11.300781 C 19.089844 11.570312 18.367188 11.949219 18.132812 12.140625 C 17.882812 12.328125 17.632812 12.507812 17.570312 12.53125 C 17.492188 12.5625 17.507812 12.679688 17.640625 12.910156 C 17.820312 13.230469 17.8125 13.230469 17.460938 12.820312 C 17.25 12.589844 17.050781 12.398438 17 12.398438 C 16.730469 12.398438 15.269531 14.730469 13.882812 17.359375 L 13.050781 18.9375 L 12.992188 18.449219 C 12.929688 17.949219 12.929688 17.949219 12.921875 18.609375 C 12.898438 19.132812 12.820312 19.46875 12.507812 20.210938 C 12.289062 20.730469 12.089844 21.078125 12.0625 21 C 11.867188 20.390625 11.800781 19.4375 11.800781 17.5 C 11.8125 16.269531 11.78125 15.980469 11.679688 16.078125 C 11.601562 16.160156 11.5625 16.570312 11.570312 17.382812 C 11.578125 20 11.601562 20.3125 11.71875 20.242188 C 11.789062 20.1875 11.800781 20.210938 11.742188 20.3125 C 11.648438 20.460938 11.679688 20.890625 11.800781 21.050781 C 11.960938 21.269531 11.96875 21.632812 11.820312 22.101562 C 11.679688 22.550781 11.679688 22.648438 11.828125 23.28125 C 12 23.992188 12.039062 25.210938 11.898438 25.75 C 11.851562 25.9375 11.820312 25.601562 11.8125 24.800781 C 11.800781 23.9375 11.75 23.460938 11.648438 23.25 C 11.519531 22.980469 11.507812 23.257812 11.539062 25.851562 L 11.578125 28.75 L 11.96875 29.851562 L 12.359375 30.949219 L 13.007812 30.921875 C 13.851562 30.890625 15.019531 30.632812 15.660156 30.351562 L 16.171875 30.132812 L 16.230469 29.050781 C 16.289062 28.140625 16.28125 27.949219 16.140625 27.859375 C 15.921875 27.699219 15.8125 27.078125 15.800781 26.089844 L 15.800781 25.21875 L 15.507812 25.171875 C 14.992188 25.0625 14.992188 24.507812 15.5 24.28125 C 15.769531 24.171875 15.992188 23.75 15.851562 23.617188 C 15.820312 23.589844 15.570312 23.609375 15.300781 23.660156 C 14.671875 23.789062 14.742188 23.660156 15.390625 23.5 C 15.789062 23.410156 15.890625 23.339844 15.949219 23.117188 C 16 22.929688 15.960938 22.820312 15.828125 22.71875 C 15.660156 22.589844 15.671875 22.578125 15.890625 22.648438 C 16.0625 22.699219 16.109375 22.6875 16.078125 22.589844 C 16.0625 22.507812 15.75 22.367188 15.390625 22.28125 C 15.039062 22.1875 14.859375 22.109375 15.007812 22.109375 C 15.148438 22.101562 15.480469 22.171875 15.75 22.242188 C 16.199219 22.382812 16.25 22.382812 16.46875 22.199219 C 16.609375 22.101562 16.921875 21.980469 17.160156 21.9375 C 17.410156 21.910156 17.589844 21.851562 17.570312 21.8125 C 17.320312 21.328125 17.089844 20.6875 17.070312 20.410156 C 17.050781 20.132812 17.089844 20.050781 17.25 20.03125 C 17.429688 20 17.4375 20 17.269531 20.101562 C 17.078125 20.21875 17.109375 20.460938 17.421875 21.1875 L 17.609375 21.632812 L 17.898438 21.351562 C 18.3125 20.960938 18.382812 20.660156 18.429688 18.960938 C 18.46875 17.671875 18.449219 17.398438 18.289062 16.921875 C 18.179688 16.609375 18.039062 16.289062 17.960938 16.210938 C 17.8125 16.039062 17 14.449219 17 14.328125 C 17 14.289062 17.3125 14.769531 17.679688 15.398438 C 18.0625 16.019531 18.421875 16.5625 18.480469 16.578125 C 18.632812 16.632812 18.632812 16.25 18.5 15.5 C 18.328125 14.492188 18.289062 14.351562 18.050781 13.820312 C 17.921875 13.539062 17.828125 13.300781 17.851562 13.300781 C 17.921875 13.300781 18.300781 14.03125 18.382812 14.328125 L 18.460938 14.648438 L 19.507812 14.730469 C 20.078125 14.78125 20.601562 14.820312 20.648438 14.820312 C 20.710938 14.828125 20.859375 14.800781 21 14.757812 C 21.179688 14.710938 21.210938 14.71875 21.109375 14.78125 C 21 14.859375 21.089844 14.898438 21.460938 14.96875 C 21.992188 15.0625 23.171875 15.0625 23.257812 14.980469 C 23.289062 14.949219 23.300781 14.617188 23.28125 14.25 L 23.25 13.578125 L 22.78125 13.992188 C 22.359375 14.367188 21.460938 14.789062 21.339844 14.679688 C 21.320312 14.648438 21.480469 14.578125 21.699219 14.507812 C 21.929688 14.4375 22.339844 14.171875 22.679688 13.851562 C 23.148438 13.421875 23.257812 13.25 23.230469 13.070312 C 23.199219 12.9375 23.25 12.671875 23.339844 12.46875 C 23.421875 12.269531 23.460938 12.101562 23.421875 12.101562 C 23.390625 12.101562 23.148438 12.300781 22.898438 12.539062 C 22.078125 13.339844 21.257812 13.632812 21.140625 13.160156 C 21.089844 12.960938 20.980469 12.910156 20.367188 12.789062 C 19.96875 12.710938 19.390625 12.648438 19.078125 12.648438 C 18.757812 12.648438 18.5 12.617188 18.5 12.570312 C 18.5 12.480469 18.617188 12.46875 19.699219 12.460938 C 20.898438 12.449219 21 12.367188 21 11.5 C 21 11.109375 20.96875 10.800781 20.929688 10.8125 C 20.882812 10.8125 20.339844 11.03125 19.710938 11.300781 Z M 17 14.148438 C 17 14.199219 16.949219 14.179688 16.898438 14.101562 C 16.851562 14.019531 16.800781 13.898438 16.800781 13.851562 C 16.800781 13.789062 16.851562 13.820312 16.898438 13.898438 C 16.949219 13.980469 17 14.089844 17 14.148438 Z M 11.96875 26.570312 C 11.9375 26.671875 11.921875 26.609375 11.921875 26.449219 C 11.921875 26.28125 11.9375 26.210938 11.96875 26.269531 C 11.992188 26.339844 11.992188 26.480469 11.96875 26.570312 Z M 11.96875 26.570312 "/>
<path style=" stroke:none;fill-rule:nonzero;fill:rgb(0%,0%,0%);fill-opacity:1;" d="M 26.550781 12.46875 C 26.289062 13.410156 26.3125 13.382812 26.101562 13.101562 C 25.992188 12.960938 25.898438 12.882812 25.898438 12.910156 C 25.898438 12.96875 26.117188 14.148438 26.25 14.757812 C 26.300781 14.96875 26.3125 14.96875 26.921875 14.828125 C 27.269531 14.75 27.570312 14.671875 27.589844 14.648438 C 27.648438 14.589844 27.199219 12.578125 27.039062 12.21875 C 26.96875 12.050781 26.859375 11.898438 26.800781 11.898438 C 26.75 11.898438 26.632812 12.160156 26.550781 12.46875 Z M 26.550781 12.46875 "/>
<path style=" stroke:none;fill-rule:nonzero;fill:rgb(0%,0%,0%);fill-opacity:1;" d="M 24.03125 13.03125 L 23.398438 13.449219 L 23.398438 14.992188 L 24.140625 14.96875 L 24.882812 14.949219 L 24.921875 13.949219 C 24.960938 13.03125 24.898438 12.601562 24.71875 12.601562 C 24.679688 12.601562 24.367188 12.789062 24.03125 13.03125 Z M 24.03125 13.03125 "/>
<path style=" stroke:none;fill-rule:nonzero;fill:rgb(0%,0%,0%);fill-opacity:1;" d="M 36.300781 14.148438 C 36.300781 14.199219 36.351562 14.320312 36.398438 14.398438 C 36.449219 14.480469 36.5 14.5 36.5 14.449219 C 36.5 14.390625 36.449219 14.28125 36.398438 14.199219 C 36.351562 14.117188 36.300781 14.089844 36.300781 14.148438 Z M 36.300781 14.148438 "/>
<path style=" stroke:none;fill-rule:nonzero;fill:rgb(0%,0%,0%);fill-opacity:1;" d="M 11.679688 15 C 11.660156 15.269531 11.679688 15.398438 11.769531 15.398438 C 11.9375 15.398438 12.03125 15.230469 11.882812 15.171875 C 11.78125 15.140625 11.78125 15.101562 11.882812 14.96875 C 11.960938 14.882812 11.992188 14.757812 11.949219 14.699219 C 11.820312 14.5 11.71875 14.609375 11.679688 15 Z M 11.679688 15 "/>
<path style=" stroke:none;fill-rule:nonzero;fill:rgb(0%,0%,0%);fill-opacity:1;" d="M 18.648438 15.171875 C 18.6875 15.382812 18.742188 15.578125 18.757812 15.617188 C 18.789062 15.671875 19.109375 15.710938 19.480469 15.710938 C 19.851562 15.71875 20.289062 15.757812 20.449219 15.800781 C 20.617188 15.839844 20.320312 15.851562 19.789062 15.820312 L 18.828125 15.769531 L 18.75 16.160156 C 18.710938 16.367188 18.660156 16.949219 18.648438 17.449219 C 18.460938 22.53125 18.460938 22.070312 18.6875 22.148438 C 18.949219 22.230469 19.117188 22.53125 19.039062 22.742188 C 18.992188 22.859375 19.019531 22.890625 19.140625 22.839844 C 19.230469 22.8125 19.410156 22.8125 19.539062 22.839844 C 19.730469 22.890625 19.800781 22.992188 19.851562 23.300781 L 19.921875 23.699219 L 20.4375 23.699219 C 20.730469 23.699219 21.007812 23.75 21.078125 23.820312 C 21.160156 23.898438 21.199219 24.3125 21.199219 25 C 21.210938 25.992188 21.21875 26.039062 21.359375 25.769531 C 21.4375 25.617188 21.601562 25.089844 21.699219 24.609375 C 21.8125 24.117188 21.9375 23.601562 22 23.460938 C 22.132812 23.101562 22.539062 23.019531 22.898438 23.289062 C 23.0625 23.398438 23.210938 23.5 23.242188 23.5 C 23.257812 23.5 23.300781 23.269531 23.320312 23 C 23.328125 22.71875 23.320312 22.5 23.269531 22.5 C 23.230469 22.5 22.828125 22.6875 22.382812 22.910156 C 21.921875 23.140625 21.609375 23.257812 21.671875 23.1875 C 21.730469 23.109375 22.140625 22.867188 22.578125 22.648438 L 23.382812 22.25 L 23.460938 21.351562 C 23.550781 20.410156 23.53125 16.839844 23.4375 16.390625 C 23.390625 16.132812 23.367188 16.132812 22.671875 16.140625 C 21.929688 16.148438 20.75 16.019531 20.828125 15.9375 C 20.859375 15.910156 21.230469 15.9375 21.660156 15.992188 C 22.078125 16.050781 22.648438 16.070312 22.921875 16.039062 C 23.390625 15.96875 23.410156 15.960938 23.339844 15.710938 C 23.300781 15.570312 23.28125 15.367188 23.28125 15.269531 C 23.289062 15.109375 23.230469 15.101562 22.851562 15.148438 C 22.609375 15.1875 22 15.160156 21.5 15.089844 C 20.71875 14.992188 20.570312 14.992188 20.480469 15.109375 C 20.398438 15.21875 20.390625 15.21875 20.429688 15.089844 C 20.492188 14.890625 20.089844 14.800781 19.160156 14.800781 L 18.578125 14.800781 Z M 23.230469 17.117188 C 23.117188 17.25 22.882812 17.75 22.6875 18.25 C 22.3125 19.300781 21.710938 20.007812 20.8125 20.5 C 20.078125 20.898438 19.757812 20.980469 20.257812 20.632812 C 20.492188 20.480469 21.039062 19.96875 21.5 19.5 C 22.132812 18.851562 22.398438 18.480469 22.660156 17.910156 C 23.03125 17.101562 23.171875 16.898438 23.328125 16.898438 C 23.390625 16.898438 23.339844 17 23.230469 17.117188 Z M 23.230469 17.117188 "/>
<path style=" stroke:none;fill-rule:nonzero;fill:rgb(0%,0%,0%);fill-opacity:1;" d="M 26.679688 15.019531 C 26.429688 15.078125 26.300781 15.179688 26.300781 15.28125 C 26.300781 15.632812 26.4375 15.6875 27.078125 15.632812 L 27.699219 15.570312 L 27.679688 15.242188 C 27.660156 14.929688 27.632812 14.898438 27.351562 14.910156 C 27.1875 14.921875 26.882812 14.96875 26.679688 15.019531 Z M 26.679688 15.019531 "/>
<path style=" stroke:none;fill-rule:nonzero;fill:rgb(0%,0%,0%);fill-opacity:1;" d="M 27.820312 15.257812 C 27.851562 15.601562 27.882812 15.640625 28.28125 15.757812 C 29 15.96875 30.75 16.039062 31.78125 15.898438 L 32.710938 15.769531 L 32.679688 15.460938 C 32.660156 15.210938 32.609375 15.160156 32.449219 15.1875 C 31.660156 15.339844 28.730469 15.171875 27.96875 14.9375 C 27.8125 14.890625 27.789062 14.929688 27.820312 15.257812 Z M 27.820312 15.257812 "/>
<path style=" stroke:none;fill-rule:nonzero;fill:rgb(0%,0%,0%);fill-opacity:1;" d="M 36.617188 15.101562 C 36.617188 15.242188 36.640625 15.289062 36.671875 15.21875 C 36.6875 15.160156 36.6875 15.039062 36.671875 14.96875 C 36.640625 14.910156 36.617188 14.960938 36.617188 15.101562 Z M 36.617188 15.101562 "/>
<path style=" stroke:none;fill-rule:nonzero;fill:rgb(0%,0%,0%);fill-opacity:1;" d="M 23.859375 15.070312 C 23.382812 15.109375 23.382812 15.109375 23.4375 15.421875 C 23.46875 15.589844 23.5 15.789062 23.5 15.859375 C 23.5 15.960938 23.660156 16 24.140625 16 L 24.78125 16 L 24.820312 15.648438 C 24.839844 15.449219 24.820312 15.300781 24.75 15.300781 C 24.699219 15.300781 24.71875 15.25 24.800781 15.199219 C 24.929688 15.117188 24.929688 15.101562 24.78125 15.101562 C 24.6875 15.101562 24.5625 15.089844 24.480469 15.070312 C 24.410156 15.050781 24.132812 15.050781 23.859375 15.070312 Z M 23.859375 15.070312 "/>
<path style=" stroke:none;fill-rule:nonzero;fill:rgb(0%,0%,0%);fill-opacity:1;" d="M 12.421875 15.9375 C 12.351562 16.269531 12.300781 16.71875 12.3125 16.9375 C 12.320312 17.242188 12.359375 17.132812 12.460938 16.5 C 12.632812 15.5 12.601562 15.078125 12.421875 15.9375 Z M 12.421875 15.9375 "/>
<path style=" stroke:none;fill-rule:nonzero;fill:rgb(0%,0%,0%);fill-opacity:1;" d="M 13.210938 15.5625 C 13.210938 15.671875 13.242188 15.699219 13.269531 15.617188 C 13.300781 15.550781 13.289062 15.460938 13.257812 15.429688 C 13.230469 15.390625 13.199219 15.449219 13.210938 15.5625 Z M 13.210938 15.5625 "/>
<path style=" stroke:none;fill-rule:nonzero;fill:rgb(0%,0%,0%);fill-opacity:1;" d="M 11.671875 15.640625 C 11.632812 15.742188 11.660156 15.769531 11.75 15.730469 C 11.828125 15.699219 11.867188 15.640625 11.839844 15.589844 C 11.769531 15.46875 11.730469 15.480469 11.671875 15.640625 Z M 11.671875 15.640625 "/>
<path style=" stroke:none;fill-rule:nonzero;fill:rgb(0%,0%,0%);fill-opacity:1;" d="M 26.820312 15.800781 C 26.640625 15.839844 26.480469 15.890625 26.460938 15.910156 C 26.449219 15.929688 26.289062 16.699219 26.109375 17.617188 L 25.789062 19.289062 L 26 21.4375 C 26.109375 22.632812 26.199219 23.640625 26.199219 23.6875 C 26.199219 23.75 26.269531 23.769531 26.351562 23.742188 C 26.570312 23.648438 27.089844 23.890625 27.230469 24.140625 C 27.289062 24.25 27.367188 24.78125 27.410156 25.300781 C 27.460938 26.1875 27.46875 26.148438 27.480469 24.71875 C 27.5 23.460938 27.460938 23.039062 27.300781 22.390625 C 27.007812 21.242188 26.78125 19.648438 26.859375 19.21875 C 26.890625 19.019531 27.050781 18.4375 27.199219 17.949219 C 27.351562 17.449219 27.507812 16.75 27.550781 16.367188 C 27.617188 15.710938 27.617188 15.699219 27.390625 15.710938 C 27.257812 15.71875 27 15.757812 26.820312 15.800781 Z M 26.820312 15.800781 "/>
<path style=" stroke:none;fill-rule:nonzero;fill:rgb(0%,0%,0%);fill-opacity:1;" d="M 27.757812 16.070312 C 27.730469 16.21875 27.679688 16.570312 27.640625 16.839844 C 27.601562 17.109375 27.4375 17.710938 27.289062 18.171875 C 27.109375 18.679688 27 19.230469 27 19.539062 C 27 20.160156 27.210938 21.398438 27.492188 22.550781 C 27.609375 22.992188 27.699219 23.6875 27.710938 24.101562 L 27.710938 24.851562 L 27.851562 24.351562 C 27.929688 24.070312 27.992188 23.6875 28 23.492188 C 28 23.050781 28.25 22.800781 28.679688 22.800781 C 29.140625 22.800781 29.367188 23.179688 29.21875 23.679688 C 29.078125 24.160156 28.980469 25.898438 29.089844 25.898438 C 29.140625 25.898438 29.300781 25.609375 29.460938 25.25 C 29.730469 24.589844 30.257812 24 30.5625 24 C 30.640625 24 30.839844 24.070312 31 24.148438 L 31.300781 24.3125 L 31.300781 23.78125 C 31.300781 23.132812 31.359375 23.050781 31.828125 23.007812 C 32.171875 22.992188 32.199219 23 32.199219 23.25 C 32.199219 23.480469 32.230469 23.507812 32.429688 23.460938 C 32.550781 23.429688 32.75 23.398438 32.859375 23.398438 C 33.070312 23.398438 33.078125 23.367188 33.03125 22.070312 C 33.007812 21.351562 32.929688 20.367188 32.851562 19.898438 C 32.757812 19.382812 32.71875 18.46875 32.730469 17.53125 C 32.742188 16.699219 32.71875 15.992188 32.6875 15.960938 C 32.660156 15.921875 32.199219 15.949219 31.671875 16.019531 C 30.757812 16.132812 29.179688 16.0625 28.140625 15.839844 C 27.851562 15.789062 27.820312 15.8125 27.757812 16.070312 Z M 31.882812 17.148438 C 31.980469 17.1875 32 17.660156 31.980469 19.269531 L 31.949219 21.351562 L 31.160156 21.867188 L 30.367188 22.382812 L 29.859375 22.179688 C 29.578125 22.070312 29.132812 21.882812 28.851562 21.78125 C 28.578125 21.671875 28.339844 21.570312 28.320312 21.550781 C 28.300781 21.53125 28.199219 21.117188 28.089844 20.640625 C 27.960938 20.019531 27.898438 19.367188 27.898438 18.4375 C 27.898438 17.140625 27.898438 17.109375 28.132812 17.078125 C 28.429688 17.039062 31.71875 17.101562 31.882812 17.148438 Z M 27.507812 20.601562 C 27.640625 20.992188 28.070312 21.570312 28.890625 22.449219 C 29.199219 22.78125 29.03125 22.648438 28.53125 22.160156 C 27.632812 21.28125 27.3125 20.800781 27.148438 20.050781 L 27.089844 19.75 L 27.242188 20 C 27.320312 20.140625 27.449219 20.410156 27.507812 20.601562 Z M 27.507812 20.601562 "/>
<path style=" stroke:none;fill-rule:nonzero;fill:rgb(0%,0%,0%);fill-opacity:1;" d="M 28 17.300781 C 28 17.351562 28.0625 17.410156 28.132812 17.429688 C 28.230469 17.46875 28.230469 17.492188 28.132812 17.492188 C 27.929688 17.5 27.960938 18.460938 28.148438 18.539062 C 28.230469 18.570312 28.300781 18.648438 28.300781 18.71875 C 28.300781 18.8125 28.269531 18.8125 28.1875 18.699219 C 28.070312 18.519531 28.101562 18.648438 28.289062 19.007812 C 28.410156 19.257812 28.460938 19.269531 29.53125 19.328125 C 31.28125 19.4375 31.53125 19.421875 31.46875 19.25 C 31.429688 19.171875 31.460938 19.078125 31.519531 19.039062 C 31.589844 18.992188 31.601562 19.019531 31.550781 19.101562 C 31.492188 19.1875 31.507812 19.210938 31.589844 19.160156 C 31.660156 19.109375 31.6875 19.007812 31.660156 18.929688 C 31.632812 18.851562 31.648438 18.820312 31.699219 18.851562 C 31.757812 18.890625 31.789062 18.78125 31.789062 18.578125 C 31.78125 18.398438 31.8125 18.101562 31.851562 17.921875 L 31.929688 17.601562 L 31.449219 17.601562 C 30.867188 17.601562 30.898438 17.507812 31.480469 17.480469 C 31.960938 17.460938 32.03125 17.339844 31.632812 17.257812 C 31.199219 17.171875 28 17.210938 28 17.300781 Z M 29.230469 17.46875 C 29.101562 17.492188 28.882812 17.492188 28.730469 17.46875 C 28.570312 17.449219 28.679688 17.429688 28.949219 17.429688 C 29.230469 17.429688 29.351562 17.449219 29.230469 17.46875 Z M 30.382812 17.570312 C 30.21875 17.589844 29.980469 17.589844 29.828125 17.570312 C 29.671875 17.550781 29.800781 17.53125 30.101562 17.53125 C 30.398438 17.53125 30.53125 17.550781 30.382812 17.570312 Z M 30.5 18.359375 C 30.5 18.53125 30.269531 18.800781 30.117188 18.800781 C 29.710938 18.800781 29.5625 18.300781 29.882812 18 C 30.039062 17.839844 30.0625 17.839844 30.28125 18.070312 C 30.398438 18.199219 30.5 18.328125 30.5 18.359375 Z M 30.5 18.359375 "/>
<path style=" stroke:none;fill-rule:nonzero;fill:rgb(0%,0%,0%);fill-opacity:1;" d="M 29.800781 18.351562 C 29.800781 18.550781 29.851562 18.601562 30.050781 18.601562 C 30.25 18.601562 30.300781 18.550781 30.300781 18.351562 C 30.300781 18.148438 30.25 18.101562 30.050781 18.101562 C 29.851562 18.101562 29.800781 18.148438 29.800781 18.351562 Z M 30.179688 18.320312 C 30.117188 18.5 29.898438 18.53125 29.898438 18.359375 C 29.898438 18.269531 29.96875 18.199219 30.0625 18.199219 C 30.148438 18.199219 30.199219 18.25 30.179688 18.320312 Z M 30.179688 18.320312 "/>
<path style=" stroke:none;fill-rule:nonzero;fill:rgb(0%,0%,0%);fill-opacity:1;" d="M 28.007812 19.300781 C 28.007812 19.710938 28.3125 21.351562 28.410156 21.4375 C 28.429688 21.460938 28.867188 21.640625 29.382812 21.851562 C 30.210938 22.179688 30.710938 22.25 30.5625 22.007812 C 30.53125 21.960938 30.578125 21.929688 30.679688 21.9375 C 30.769531 21.9375 30.839844 21.898438 30.828125 21.839844 C 30.820312 21.769531 30.882812 21.730469 30.980469 21.742188 C 31.070312 21.742188 31.140625 21.6875 31.117188 21.617188 C 31.109375 21.539062 31.140625 21.507812 31.1875 21.539062 C 31.242188 21.578125 31.398438 21.550781 31.550781 21.480469 C 31.789062 21.367188 31.8125 21.320312 31.800781 20.757812 C 31.800781 20.421875 31.820312 19.882812 31.851562 19.550781 C 31.882812 19.21875 31.867188 19.019531 31.828125 19.101562 C 31.660156 19.5 31.539062 19.519531 29.9375 19.480469 C 28.699219 19.460938 28.367188 19.421875 28.300781 19.300781 C 28.25 19.21875 28.199219 19.1875 28.1875 19.25 C 28.1875 19.300781 28.140625 19.242188 28.101562 19.101562 C 28.03125 18.890625 28.019531 18.929688 28.007812 19.300781 Z M 29.5 20.28125 C 29.6875 20.429688 30.019531 20.570312 30.25 20.609375 L 30.648438 20.671875 L 30.289062 20.6875 C 30.039062 20.699219 29.769531 20.589844 29.289062 20.289062 C 28.9375 20.0625 28.609375 19.828125 28.550781 19.78125 C 28.382812 19.609375 29.132812 20.007812 29.5 20.28125 Z M 29.5 20.28125 "/>
<path style=" stroke:none;fill-rule:nonzero;fill:rgb(0%,0%,0%);fill-opacity:1;" d="M 23.617188 16.96875 C 23.71875 18.339844 23.710938 20.269531 23.601562 21.1875 C 23.539062 21.648438 23.519531 22.050781 23.550781 22.078125 C 23.578125 22.109375 23.78125 21.992188 24 21.8125 C 24.539062 21.382812 24.507812 21.550781 23.960938 22.050781 C 23.601562 22.367188 23.5 22.539062 23.4375 22.898438 C 23.382812 23.339844 23.382812 23.351562 23.570312 23.179688 C 23.699219 23.0625 23.75 22.910156 23.71875 22.71875 C 23.679688 22.390625 23.890625 22.171875 24.21875 22.21875 C 24.390625 22.242188 24.480469 22.179688 24.570312 21.96875 C 24.640625 21.8125 24.789062 21.660156 24.898438 21.632812 C 25.089844 21.578125 25.101562 21.5 25.089844 20.160156 C 25.078125 19.390625 25.050781 18.160156 25.007812 17.449219 C 24.949219 16.210938 24.9375 16.171875 24.820312 16.5625 C 24.75 16.789062 24.632812 17.039062 24.539062 17.109375 C 24.460938 17.179688 24.320312 17.367188 24.242188 17.539062 L 24.101562 17.851562 L 24.140625 17.5625 C 24.160156 17.367188 24.109375 17.171875 23.96875 16.992188 C 23.78125 16.71875 23.78125 16.699219 23.9375 16.460938 C 24.109375 16.1875 24.4375 16.117188 24.5625 16.320312 C 24.609375 16.398438 24.5625 16.410156 24.410156 16.367188 C 24.179688 16.3125 23.867188 16.550781 23.929688 16.730469 C 23.992188 16.910156 24.257812 17.039062 24.4375 16.96875 C 24.53125 16.929688 24.601562 16.800781 24.601562 16.660156 C 24.601562 16.519531 24.648438 16.382812 24.699219 16.351562 C 24.949219 16.199219 24.75 16.101562 24.171875 16.101562 L 23.550781 16.101562 Z M 24.5 16.640625 C 24.5 16.71875 24.449219 16.820312 24.390625 16.859375 C 24.25 16.9375 24.0625 16.75 24.140625 16.609375 C 24.242188 16.449219 24.5 16.480469 24.5 16.640625 Z M 24.679688 19.320312 C 24.898438 19.539062 24.820312 19.992188 24.550781 20.117188 C 24.089844 20.328125 23.6875 19.71875 24.0625 19.359375 C 24.242188 19.171875 24.507812 19.148438 24.679688 19.320312 Z M 24.679688 19.320312 "/>
<path style=" stroke:none;fill-rule:nonzero;fill:rgb(0%,0%,0%);fill-opacity:1;" d="M 24.089844 19.460938 C 23.921875 19.671875 24.089844 19.949219 24.410156 19.949219 C 24.679688 19.949219 24.78125 19.671875 24.601562 19.449219 C 24.4375 19.257812 24.257812 19.257812 24.089844 19.460938 Z M 24.578125 19.617188 C 24.507812 19.8125 24.199219 19.839844 24.199219 19.660156 C 24.199219 19.5625 24.289062 19.5 24.410156 19.5 C 24.53125 19.5 24.601562 19.550781 24.578125 19.617188 Z M 24.578125 19.617188 "/>
<path style=" stroke:none;fill-rule:nonzero;fill:rgb(0%,0%,0%);fill-opacity:1;" d="M 12.230469 18.101562 C 12.230469 18.460938 12.25 18.601562 12.269531 18.421875 C 12.289062 18.25 12.289062 17.949219 12.269531 17.769531 C 12.25 17.601562 12.230469 17.742188 12.230469 18.101562 Z M 12.230469 18.101562 "/>
<path style=" stroke:none;fill-rule:nonzero;fill:rgb(0%,0%,0%);fill-opacity:1;" d="M 24.960938 22.117188 C 24.828125 22.539062 24.679688 23.578125 24.632812 24.410156 L 24.570312 25.382812 L 24.21875 25.539062 C 24.03125 25.632812 23.859375 25.6875 23.839844 25.679688 C 23.828125 25.660156 23.609375 25.242188 23.359375 24.742188 C 22.617188 23.269531 22.421875 23.242188 22.160156 24.570312 C 21.980469 25.460938 21.648438 26.3125 21.171875 27.078125 C 20.710938 27.789062 20.671875 27.671875 20.75 25.800781 L 20.828125 24.109375 L 20.101562 24.140625 C 19.519531 24.171875 19.339844 24.21875 19.132812 24.410156 C 18.78125 24.742188 18.601562 25.199219 18.601562 25.800781 C 18.601562 26.8125 19 26.992188 19.53125 26.242188 L 19.851562 25.78125 L 19.929688 26.3125 C 20.0625 27.109375 20.230469 27.617188 20.410156 27.730469 C 20.699219 27.910156 21.0625 27.730469 21.3125 27.257812 C 21.5625 26.769531 21.671875 26.710938 21.507812 27.140625 C 21.351562 27.550781 21.570312 27.449219 21.757812 27.019531 C 21.898438 26.699219 22.257812 25.398438 22.449219 24.5625 C 22.53125 24.179688 22.632812 24.300781 22.949219 25.148438 C 23.1875 25.800781 23.199219 25.859375 23.039062 25.949219 C 22.550781 26.242188 22.199219 26.632812 22.199219 26.898438 C 22.199219 27.5 23.179688 27.730469 23.648438 27.25 C 23.859375 27.050781 23.898438 26.910156 23.898438 26.421875 C 23.898438 25.859375 23.910156 25.828125 24.242188 25.679688 L 24.570312 25.519531 L 24.617188 26.257812 C 24.671875 27.007812 24.851562 27.398438 25.078125 27.257812 C 25.140625 27.230469 25.242188 26.9375 25.300781 26.617188 C 25.460938 25.828125 26.179688 24.382812 26.390625 24.421875 C 26.519531 24.449219 26.5625 24.671875 26.609375 25.851562 C 26.660156 27.339844 26.710938 27.5625 27.007812 27.648438 C 27.300781 27.75 27.570312 27.539062 27.820312 27 C 27.949219 26.730469 28.078125 26.507812 28.109375 26.5 C 28.148438 26.5 28.210938 26.609375 28.242188 26.75 C 28.28125 26.890625 28.421875 27.070312 28.5625 27.160156 C 28.890625 27.382812 29.242188 27.230469 29.46875 26.757812 L 29.632812 26.410156 L 29.789062 26.730469 C 29.882812 26.910156 30.078125 27.109375 30.230469 27.179688 C 30.851562 27.480469 31.398438 26.867188 31.398438 25.898438 L 31.398438 25.398438 L 32.300781 25.398438 L 32.3125 25.867188 C 32.3125 26.140625 32.351562 26.570312 32.382812 26.851562 C 32.4375 27.289062 32.480469 27.351562 32.6875 27.351562 C 32.898438 27.351562 32.9375 27.257812 33.160156 26.398438 C 33.507812 25.019531 34.101562 23.960938 34.367188 24.242188 C 34.410156 24.28125 34.449219 24.820312 34.460938 25.429688 C 34.460938 26.050781 34.46875 26.671875 34.480469 26.820312 C 34.519531 27.382812 35.089844 27.589844 35.480469 27.171875 C 35.757812 26.867188 36.199219 25.910156 36.1875 25.601562 L 36.1875 25.351562 L 36.078125 25.601562 C 35.601562 26.699219 35.390625 27.109375 35.25 27.160156 C 34.9375 27.28125 34.867188 27.039062 34.882812 25.78125 C 34.898438 24.410156 34.800781 24.070312 34.390625 24.019531 C 34.0625 23.980469 33.6875 24.28125 33.390625 24.839844 C 33.257812 25.089844 33.117188 25.300781 33.078125 25.300781 C 33.03125 25.300781 33 24.980469 33 24.601562 C 33 23.929688 32.992188 23.898438 32.757812 23.898438 C 32.570312 23.898438 32.519531 23.960938 32.460938 24.269531 C 32.429688 24.480469 32.398438 24.800781 32.398438 24.96875 C 32.398438 25.257812 32.367188 25.300781 32.148438 25.300781 C 31.820312 25.300781 31.421875 25.089844 31.109375 24.757812 C 30.828125 24.460938 30.5 24.429688 30.28125 24.671875 C 30.1875 24.769531 29.882812 25.359375 29.589844 25.980469 C 29.019531 27.210938 28.828125 27.351562 28.671875 26.648438 C 28.617188 26.429688 28.609375 25.769531 28.640625 25.171875 C 28.6875 24.171875 28.679688 24.101562 28.507812 24.101562 C 28.351562 24.101562 28.300781 24.21875 28.199219 24.820312 C 28.140625 25.21875 28.0625 25.679688 28.039062 25.851562 C 27.980469 26.230469 27.390625 27.429688 27.242188 27.480469 C 27.078125 27.519531 27 27.007812 27 25.851562 C 27 24.570312 26.890625 24.199219 26.5 24.199219 C 26.210938 24.199219 25.789062 24.601562 25.570312 25.070312 C 25.398438 25.4375 25.269531 25.339844 25.339844 24.867188 C 25.367188 24.640625 25.421875 23.898438 25.460938 23.21875 L 25.53125 22 L 25.257812 22 C 25.109375 22 24.980469 22.0625 24.960938 22.117188 Z M 20.078125 24.5625 C 20.117188 24.859375 19.289062 26.4375 19.0625 26.480469 C 18.898438 26.519531 18.890625 26.46875 18.949219 25.980469 C 18.992188 25.6875 19.089844 25.289062 19.171875 25.101562 C 19.449219 24.398438 20.007812 24.070312 20.078125 24.5625 Z M 30.960938 25.25 C 31.230469 25.898438 31.03125 27.101562 30.660156 27.101562 C 30.398438 27.101562 30.269531 26.710938 30.328125 26.0625 C 30.390625 25.382812 30.539062 24.898438 30.699219 24.898438 C 30.757812 24.898438 30.882812 25.0625 30.960938 25.25 Z M 23.320312 26.46875 C 23.410156 27.210938 23.039062 27.640625 22.679688 27.210938 C 22.4375 26.898438 22.449219 26.769531 22.757812 26.410156 C 23.101562 26 23.269531 26.019531 23.320312 26.46875 Z M 23.320312 26.46875 "/>
<path style=" stroke:none;fill-rule:nonzero;fill:rgb(0%,0%,0%);fill-opacity:1;" d="M 23.867188 22.359375 C 23.71875 22.519531 23.800781 22.890625 24.007812 22.949219 C 24.28125 23.039062 24.429688 22.890625 24.382812 22.589844 C 24.351562 22.351562 24.019531 22.210938 23.867188 22.359375 Z M 24.300781 22.601562 C 24.300781 22.710938 24.242188 22.800781 24.160156 22.800781 C 23.980469 22.800781 23.867188 22.640625 23.949219 22.5 C 24.0625 22.320312 24.300781 22.390625 24.300781 22.601562 Z M 24.300781 22.601562 "/>
<path style=" stroke:none;fill-rule:nonzero;fill:rgb(0%,0%,0%);fill-opacity:1;" d="M 16.730469 22.550781 C 16.519531 22.699219 16.300781 23.367188 16.300781 23.890625 C 16.300781 24.269531 16.210938 24.5 16.0625 24.5 C 15.992188 24.5 15.851562 24.570312 15.742188 24.648438 C 15.5625 24.789062 15.570312 24.789062 15.882812 24.742188 L 16.199219 24.671875 L 16.199219 25.46875 C 16.199219 25.910156 16.230469 26.550781 16.257812 26.890625 L 16.328125 27.5 L 17.007812 27.5 L 16.9375 26.117188 L 16.867188 24.730469 L 17.449219 24.671875 C 17.769531 24.640625 18.070312 24.570312 18.132812 24.507812 C 18.199219 24.4375 18.109375 24.429688 17.839844 24.46875 C 16.921875 24.632812 16.949219 24.648438 16.980469 23.757812 C 17.019531 22.609375 17.070312 22.5625 17.910156 22.640625 C 18.640625 22.71875 18.890625 22.570312 18.230469 22.460938 C 17.589844 22.359375 16.949219 22.390625 16.730469 22.550781 Z M 16.730469 22.550781 "/>
<path style=" stroke:none;fill-rule:nonzero;fill:rgb(0%,0%,0%);fill-opacity:1;" d="M 19.171875 22.960938 C 19.132812 23 19.101562 23.230469 19.101562 23.460938 L 19.101562 23.890625 L 19.410156 23.78125 C 19.679688 23.6875 19.710938 23.640625 19.679688 23.3125 C 19.660156 23.039062 19.601562 22.9375 19.449219 22.921875 C 19.328125 22.898438 19.210938 22.921875 19.171875 22.960938 Z M 19.171875 22.960938 "/>
<path style=" stroke:none;fill-rule:nonzero;fill:rgb(0%,0%,0%);fill-opacity:1;" d="M 18.632812 23.070312 C 18.328125 23.132812 18.1875 23.867188 18.449219 24.0625 C 18.757812 24.289062 19 24.03125 19 23.480469 C 19 23.210938 18.96875 23.007812 18.929688 23.007812 C 18.882812 23.019531 18.75 23.050781 18.632812 23.070312 Z M 18.632812 23.070312 "/>
<path style=" stroke:none;fill-rule:nonzero;fill:rgb(0%,0%,0%);fill-opacity:1;" d="M 23.679688 23.328125 C 23.519531 23.460938 23.398438 23.617188 23.398438 23.699219 C 23.410156 23.78125 23.5625 24.140625 23.75 24.5 C 24.132812 25.242188 24.140625 25.230469 24.25 23.867188 C 24.300781 23.171875 24.289062 23.101562 24.132812 23.101562 C 24.03125 23.109375 23.828125 23.210938 23.679688 23.328125 Z M 23.679688 23.328125 "/>
<path style=" stroke:none;fill-rule:nonzero;fill:rgb(0%,0%,0%);fill-opacity:1;" d="M 31.550781 23.210938 C 31.421875 23.410156 31.609375 24.679688 31.769531 24.75 C 31.859375 24.78125 31.9375 24.789062 31.960938 24.769531 C 31.980469 24.757812 32.019531 24.367188 32.0625 23.921875 L 32.132812 23.101562 L 31.867188 23.101562 C 31.730469 23.101562 31.578125 23.148438 31.550781 23.210938 Z M 31.550781 23.210938 "/>
<path style=" stroke:none;fill-rule:nonzero;fill:rgb(0%,0%,0%);fill-opacity:1;" d="M 28.46875 23.269531 C 28.328125 23.398438 28.410156 23.601562 28.601562 23.601562 C 28.730469 23.601562 28.800781 23.53125 28.800781 23.398438 C 28.800781 23.210938 28.601562 23.132812 28.46875 23.269531 Z M 28.46875 23.269531 "/>
<path style=" stroke:none;fill-rule:nonzero;fill:rgb(0%,0%,0%);fill-opacity:1;" d="M 31.800781 26.53125 C 31.800781 26.890625 31.839844 27.21875 31.898438 27.25 C 31.960938 27.289062 31.96875 27.0625 31.929688 26.632812 C 31.851562 25.742188 31.800781 25.699219 31.800781 26.53125 Z M 31.800781 26.53125 "/>
<path style=" stroke:none;fill-rule:nonzero;fill:rgb(0%,0%,0%);fill-opacity:1;" d="M 18.230469 28.960938 L 18.210938 31.421875 L 18.632812 31.601562 C 18.859375 31.699219 19.242188 31.8125 19.480469 31.851562 C 19.851562 31.910156 19.9375 31.890625 20.230469 31.632812 C 20.410156 31.480469 20.75 31.257812 20.980469 31.160156 C 21.367188 30.980469 21.46875 30.980469 21.882812 31.089844 C 22.140625 31.160156 22.46875 31.328125 22.617188 31.46875 L 22.882812 31.71875 L 23.050781 31.367188 C 23.140625 31.179688 23.300781 30.9375 23.410156 30.839844 C 23.507812 30.75 23.601562 30.550781 23.601562 30.390625 L 23.601562 30.117188 L 21.179688 30.078125 C 19.5625 30.050781 18.671875 30 18.5 29.921875 C 18.25 29.800781 18.25 29.800781 18.550781 29.851562 C 19.089844 29.949219 22.648438 30.03125 23.140625 29.960938 L 23.609375 29.890625 L 23.550781 27.949219 L 23.050781 27.949219 C 22.730469 27.949219 22.4375 27.882812 22.269531 27.78125 C 22.007812 27.601562 22 27.609375 21.492188 27.910156 C 20.640625 28.398438 20.117188 28.300781 19.800781 27.570312 C 19.617188 27.179688 19.589844 27.160156 19.21875 27.1875 C 18.800781 27.21875 18.449219 27.019531 18.320312 26.679688 C 18.28125 26.589844 18.242188 27.617188 18.230469 28.960938 Z M 18.230469 28.960938 "/>
<path style=" stroke:none;fill-rule:nonzero;fill:rgb(0%,0%,0%);fill-opacity:1;" d="M 26.117188 28.398438 L 26.117188 29.699219 L 26.757812 29.699219 C 27.101562 29.699219 27.410156 29.671875 27.429688 29.617188 C 27.449219 29.578125 27.449219 29.21875 27.421875 28.820312 C 27.382812 28.101562 27.382812 28.101562 27.078125 28.101562 C 26.757812 28.101562 26.300781 27.6875 26.300781 27.390625 C 26.300781 27.289062 26.257812 27.1875 26.199219 27.148438 C 26.148438 27.117188 26.109375 27.601562 26.117188 28.398438 Z M 26.117188 28.398438 "/>
<path style=" stroke:none;fill-rule:nonzero;fill:rgb(0%,0%,0%);fill-opacity:1;" d="M 31.5 27.171875 C 31.5 27.230469 31.339844 27.382812 31.140625 27.5 C 30.742188 27.75 30.109375 27.730469 29.820312 27.46875 C 29.671875 27.328125 29.632812 27.339844 29.410156 27.507812 C 29.140625 27.730469 28.632812 27.757812 28.339844 27.5625 C 28.148438 27.429688 28.117188 27.4375 27.867188 27.75 C 27.632812 28.050781 27.601562 28.171875 27.601562 28.851562 C 27.601562 29.46875 27.632812 29.617188 27.769531 29.671875 C 28.132812 29.8125 31.78125 29.390625 32.828125 29.101562 L 33.199219 28.992188 L 33.199219 27.71875 L 32.820312 27.769531 C 32.519531 27.8125 32.359375 27.769531 32.050781 27.550781 C 31.828125 27.410156 31.617188 27.230469 31.578125 27.171875 C 31.519531 27.078125 31.5 27.078125 31.5 27.171875 Z M 31.5 27.171875 "/>
<path style=" stroke:none;fill-rule:nonzero;fill:rgb(0%,0%,0%);fill-opacity:1;" d="M 23.980469 27.5625 C 23.710938 27.859375 23.699219 27.929688 23.699219 28.890625 C 23.699219 29.898438 23.699219 29.898438 23.949219 29.898438 C 24.171875 29.898438 24.1875 29.867188 24.140625 29.601562 C 24.0625 29.25 24.230469 29 24.539062 29 C 24.980469 29 25.148438 29.46875 24.828125 29.820312 C 24.679688 29.992188 24.679688 30 24.882812 30 C 25.132812 30 25.148438 29.8125 25.039062 28.46875 C 24.992188 27.910156 24.929688 27.699219 24.828125 27.699219 C 24.75 27.699219 24.589844 27.601562 24.46875 27.46875 L 24.25 27.242188 Z M 23.980469 27.5625 "/>
<path style=" stroke:none;fill-rule:nonzero;fill:rgb(0%,0%,0%);fill-opacity:1;" d="M 24.300781 29.25 C 24.101562 29.5 24.21875 29.75 24.550781 29.75 C 24.757812 29.75 24.859375 29.699219 24.882812 29.570312 C 24.921875 29.359375 24.742188 29.101562 24.550781 29.101562 C 24.480469 29.101562 24.367188 29.171875 24.300781 29.25 Z M 24.742188 29.507812 C 24.660156 29.648438 24.398438 29.617188 24.398438 29.46875 C 24.398438 29.390625 24.429688 29.300781 24.46875 29.269531 C 24.5625 29.179688 24.8125 29.398438 24.742188 29.507812 Z M 24.742188 29.507812 "/>
<path style=" stroke:none;fill-rule:nonzero;fill:rgb(0%,0%,0%);fill-opacity:1;" d="M 32.9375 29.199219 C 32.449219 29.390625 30.210938 29.699219 28.949219 29.757812 L 27.601562 29.828125 L 27.601562 30.089844 C 27.601562 30.230469 27.570312 30.648438 27.53125 31.019531 L 27.46875 31.699219 L 28.050781 31.699219 C 28.539062 31.699219 28.660156 31.660156 28.859375 31.449219 C 29.132812 31.148438 29.730469 31.109375 30.007812 31.359375 C 30.179688 31.507812 30.289062 31.507812 31.421875 31.351562 C 33.230469 31.089844 33.230469 31.089844 33.179688 29.839844 C 33.148438 29.160156 33.140625 29.132812 32.9375 29.199219 Z M 32.9375 29.199219 "/>
<path style=" stroke:none;fill-rule:nonzero;fill:rgb(0%,0%,0%);fill-opacity:1;" d="M 26.328125 29.867188 L 26 29.910156 L 26 31.570312 L 26.382812 31.640625 C 27.140625 31.757812 27.269531 31.730469 27.339844 31.390625 C 27.367188 31.21875 27.398438 30.789062 27.398438 30.4375 L 27.398438 29.800781 L 27.03125 29.820312 C 26.820312 29.820312 26.5 29.851562 26.328125 29.867188 Z M 26.328125 29.867188 "/>
<path style=" stroke:none;fill-rule:nonzero;fill:rgb(0%,0%,0%);fill-opacity:1;" d="M 23.800781 30.3125 C 23.800781 30.480469 23.828125 30.5 23.9375 30.410156 C 24.089844 30.289062 25.019531 30.28125 24.9375 30.410156 C 24.921875 30.449219 24.9375 30.507812 25 30.550781 C 25.0625 30.589844 25.101562 30.5 25.101562 30.359375 C 25.101562 30.109375 25.078125 30.101562 24.449219 30.101562 C 23.851562 30.101562 23.800781 30.117188 23.800781 30.3125 Z M 23.800781 30.3125 "/>
<path style=" stroke:none;fill-rule:nonzero;fill:rgb(0%,0%,0%);fill-opacity:1;" d="M 15.550781 30.578125 C 15.148438 30.75 14.53125 30.882812 13.730469 30.980469 C 12.910156 31.078125 12.5 31.179688 12.5 31.257812 C 12.5 31.492188 12.890625 32.648438 13.050781 32.867188 C 13.382812 33.328125 14.699219 33.199219 15.980469 32.578125 L 16.617188 32.269531 L 16.5625 31.8125 C 16.449219 31.078125 16.269531 30.300781 16.210938 30.3125 C 16.179688 30.320312 15.882812 30.4375 15.550781 30.578125 Z M 15.550781 30.578125 "/>
<path style=" stroke:none;fill-rule:nonzero;fill:rgb(0%,0%,0%);fill-opacity:1;" d="M 35.007812 31.070312 C 34.8125 31.769531 34.867188 32.160156 35.199219 32.429688 C 35.539062 32.71875 36.339844 33.039062 36.980469 33.148438 C 37.507812 33.242188 38.359375 33.050781 38.449219 32.820312 C 38.492188 32.730469 38.601562 32.421875 38.699219 32.132812 L 38.882812 31.617188 L 38.269531 31.617188 C 37.507812 31.617188 36.550781 31.382812 35.769531 30.992188 C 35.4375 30.828125 35.160156 30.699219 35.140625 30.699219 C 35.132812 30.699219 35.0625 30.867188 35.007812 31.070312 Z M 35.007812 31.070312 "/>
<path style=" stroke:none;fill-rule:nonzero;fill:rgb(0%,0%,0%);fill-opacity:1;" d="M 23.769531 31.078125 C 23.230469 31.640625 23.0625 32.300781 23.039062 33.851562 L 23.03125 35.25 L 22.660156 35.867188 C 22.25 36.5625 21.980469 36.800781 21.601562 36.800781 C 21.019531 36.800781 20.617188 35.96875 20.53125 34.589844 C 20.429688 33.171875 20.867188 31.898438 21.460938 31.898438 C 21.75 31.898438 22.398438 32.480469 22.398438 32.742188 C 22.398438 32.828125 22.46875 32.898438 22.550781 32.898438 C 22.660156 32.898438 22.699219 32.789062 22.699219 32.539062 C 22.699219 32.257812 22.617188 32.101562 22.359375 31.839844 C 21.382812 30.859375 19.867188 32 19.730469 33.839844 C 19.601562 35.351562 20.5625 36.898438 21.617188 36.898438 C 22.078125 36.898438 22.5 36.570312 22.867188 35.898438 L 23.140625 35.421875 L 23.398438 35.929688 C 23.910156 36.949219 24.601562 36.921875 25.160156 35.859375 L 25.449219 35.3125 L 25.550781 35.679688 C 25.617188 35.9375 25.730469 36.070312 25.921875 36.140625 C 26.320312 36.28125 26.679688 35.992188 26.992188 35.289062 C 27.132812 34.96875 27.28125 34.699219 27.3125 34.699219 C 27.351562 34.699219 27.382812 35.140625 27.367188 35.679688 C 27.367188 36.730469 27.507812 37.21875 27.828125 37.28125 C 28.101562 37.328125 28.359375 37.050781 28.5 36.550781 C 28.648438 36.019531 28.800781 36.050781 28.800781 36.601562 C 28.800781 37.039062 28.898438 37.148438 29.257812 37.0625 C 29.449219 37.007812 29.5 36.929688 29.5 36.699219 C 29.5 36.480469 29.550781 36.398438 29.679688 36.398438 C 30.070312 36.390625 30.6875 36.007812 30.992188 35.570312 C 31.25 35.1875 31.359375 35.109375 31.71875 35.050781 C 32.410156 34.9375 32.519531 34.789062 31.882812 34.859375 L 31.300781 34.929688 L 31.300781 34.519531 C 31.300781 33.679688 30.6875 33.429688 29.992188 34 L 29.589844 34.320312 L 29.730469 31.601562 L 29.46875 31.601562 C 29.25 31.601562 29.1875 31.660156 29.109375 31.96875 C 28.9375 32.660156 28.8125 33.4375 28.75 34.25 C 28.679688 35.132812 28.160156 37 27.980469 37 C 27.898438 37 27.890625 36.480469 27.9375 35.148438 L 28.007812 33.300781 L 27.769531 33.300781 C 27.570312 33.300781 27.492188 33.398438 27.25 34.019531 C 26.898438 34.921875 26.4375 35.859375 26.300781 35.949219 C 26.070312 36.089844 25.980469 35.449219 26.039062 34.21875 L 26.109375 32.992188 L 25.828125 33.019531 C 25.550781 33.050781 25.550781 33.0625 25.4375 34.050781 C 25.300781 35.367188 24.757812 36.5 24.28125 36.5 C 24.070312 36.5 23.929688 36.199219 23.789062 35.421875 C 23.699219 34.960938 23.710938 34.859375 23.890625 34.609375 C 24.550781 33.6875 25.160156 31.9375 25.03125 31.390625 C 24.867188 30.75 24.242188 30.589844 23.769531 31.078125 Z M 24.640625 31.429688 C 24.769531 31.960938 24.589844 32.757812 24.132812 33.699219 L 23.757812 34.449219 L 23.710938 34 C 23.570312 32.929688 24.03125 30.949219 24.382812 31.019531 C 24.480469 31.039062 24.589844 31.210938 24.640625 31.429688 Z M 30.8125 34.070312 C 30.859375 34.21875 30.882812 34.507812 30.851562 34.710938 C 30.789062 35.039062 30.730469 35.101562 30.367188 35.230469 C 30.140625 35.3125 29.867188 35.410156 29.78125 35.449219 C 29.382812 35.609375 29.742188 34.550781 30.25 34.039062 C 30.5625 33.730469 30.679688 33.742188 30.8125 34.070312 Z M 30.601562 35.46875 C 30.601562 35.507812 30.460938 35.6875 30.28125 35.867188 C 29.929688 36.230469 29.460938 36.328125 29.519531 36.03125 C 29.578125 35.710938 30.601562 35.1875 30.601562 35.46875 Z M 30.601562 35.46875 "/>
<path style=" stroke:none;fill-rule:nonzero;fill:rgb(0%,0%,0%);fill-opacity:1;" d="M 18.230469 39.300781 C 18.0625 39.789062 18.039062 39.898438 18.160156 39.898438 C 18.242188 39.898438 18.300781 39.851562 18.300781 39.800781 C 18.300781 39.742188 18.429688 39.699219 18.589844 39.699219 C 18.757812 39.699219 18.921875 39.742188 18.949219 39.800781 C 18.980469 39.851562 19.070312 39.898438 19.148438 39.898438 C 19.367188 39.898438 18.867188 38.757812 18.632812 38.71875 C 18.492188 38.699219 18.398438 38.828125 18.230469 39.300781 Z M 18.789062 39.367188 C 18.800781 39.4375 18.730469 39.5 18.648438 39.5 C 18.492188 39.5 18.460938 39.328125 18.570312 39.039062 C 18.632812 38.882812 18.640625 38.882812 18.710938 39.0625 C 18.75 39.160156 18.789062 39.3125 18.789062 39.367188 Z M 18.789062 39.367188 "/>
<path style=" stroke:none;fill-rule:nonzero;fill:rgb(0%,0%,0%);fill-opacity:1;" d="M 19.601562 39.300781 L 19.601562 39.898438 L 19.949219 39.898438 C 20.328125 39.898438 20.699219 39.617188 20.699219 39.320312 C 20.699219 38.960938 20.410156 38.699219 19.992188 38.699219 L 19.601562 38.699219 Z M 20.382812 39.179688 C 20.421875 39.460938 20.242188 39.699219 19.992188 39.699219 C 19.828125 39.699219 19.800781 39.617188 19.800781 39.289062 C 19.800781 38.910156 19.8125 38.890625 20.078125 38.921875 C 20.269531 38.9375 20.359375 39.007812 20.382812 39.179688 Z M 20.382812 39.179688 "/>
<path style=" stroke:none;fill-rule:nonzero;fill:rgb(0%,0%,0%);fill-opacity:1;" d="M 21.101562 39.300781 C 21.101562 39.632812 21.140625 39.898438 21.199219 39.898438 C 21.257812 39.898438 21.300781 39.710938 21.3125 39.46875 L 21.3125 39.050781 L 21.519531 39.5 L 21.71875 39.949219 L 21.898438 39.550781 L 22.089844 39.148438 L 22.089844 39.519531 C 22.101562 39.789062 22.140625 39.898438 22.25 39.898438 C 22.367188 39.898438 22.398438 39.769531 22.398438 39.300781 C 22.398438 38.78125 22.382812 38.699219 22.210938 38.699219 C 22.089844 38.699219 21.96875 38.828125 21.867188 39.070312 L 21.71875 39.449219 L 21.570312 39.070312 C 21.320312 38.480469 21.101562 38.578125 21.101562 39.300781 Z M 21.101562 39.300781 "/>
<path style=" stroke:none;fill-rule:nonzero;fill:rgb(0%,0%,0%);fill-opacity:1;" d="M 22.800781 39.300781 C 22.800781 39.769531 22.828125 39.898438 22.949219 39.898438 C 23.070312 39.898438 23.101562 39.769531 23.101562 39.300781 C 23.101562 38.828125 23.070312 38.699219 22.949219 38.699219 C 22.828125 38.699219 22.800781 38.828125 22.800781 39.300781 Z M 22.800781 39.300781 "/>
<path style=" stroke:none;fill-rule:nonzero;fill:rgb(0%,0%,0%);fill-opacity:1;" d="M 23.5 39.300781 C 23.5 39.980469 23.671875 40.117188 23.71875 39.480469 L 23.75 39.0625 L 24.03125 39.480469 C 24.429688 40.089844 24.601562 40.039062 24.601562 39.300781 C 24.601562 38.839844 24.570312 38.699219 24.460938 38.699219 C 24.359375 38.699219 24.300781 38.828125 24.28125 39.070312 L 24.25 39.4375 L 24 39.070312 C 23.632812 38.53125 23.5 38.589844 23.5 39.300781 Z M 23.5 39.300781 "/>
<path style=" stroke:none;fill-rule:nonzero;fill:rgb(0%,0%,0%);fill-opacity:1;" d="M 25.601562 39.300781 C 25.601562 39.882812 25.75 40.140625 25.820312 39.671875 C 25.839844 39.519531 25.929688 39.4375 26.101562 39.421875 C 26.757812 39.328125 26.660156 38.699219 26 38.699219 L 25.601562 38.699219 Z M 26.300781 39.050781 C 26.300781 39.140625 26.210938 39.199219 26.050781 39.199219 C 25.890625 39.199219 25.800781 39.140625 25.800781 39.050781 C 25.800781 38.960938 25.890625 38.898438 26.050781 38.898438 C 26.210938 38.898438 26.300781 38.960938 26.300781 39.050781 Z M 26.300781 39.050781 "/>
<path style=" stroke:none;fill-rule:nonzero;fill:rgb(0%,0%,0%);fill-opacity:1;" d="M 27.007812 39.257812 C 26.757812 39.921875 26.757812 39.898438 26.949219 39.898438 C 27.03125 39.898438 27.101562 39.851562 27.101562 39.800781 C 27.101562 39.660156 27.632812 39.671875 27.78125 39.820312 C 28.007812 40.050781 28.019531 39.800781 27.800781 39.25 C 27.5 38.519531 27.300781 38.519531 27.007812 39.257812 Z M 27.539062 39.160156 C 27.640625 39.421875 27.609375 39.5 27.390625 39.5 C 27.242188 39.5 27.199219 39.460938 27.242188 39.339844 C 27.269531 39.25 27.300781 39.140625 27.300781 39.089844 C 27.300781 38.9375 27.46875 38.992188 27.539062 39.160156 Z M 27.539062 39.160156 "/>
<path style=" stroke:none;fill-rule:nonzero;fill:rgb(0%,0%,0%);fill-opacity:1;" d="M 28.300781 39.300781 C 28.300781 39.769531 28.328125 39.898438 28.449219 39.898438 C 28.5625 39.898438 28.601562 39.789062 28.601562 39.480469 L 28.601562 39.070312 L 28.898438 39.480469 C 29.070312 39.710938 29.25 39.898438 29.300781 39.898438 C 29.359375 39.898438 29.398438 39.632812 29.398438 39.300781 C 29.398438 38.640625 29.230469 38.46875 29.179688 39.070312 L 29.148438 39.449219 L 28.898438 39.078125 C 28.757812 38.867188 28.570312 38.699219 28.480469 38.699219 C 28.328125 38.699219 28.300781 38.789062 28.300781 39.300781 Z M 28.300781 39.300781 "/>
<path style=" stroke:none;fill-rule:nonzero;fill:rgb(0%,0%,0%);fill-opacity:1;" d="M 29.800781 39.300781 C 29.800781 39.769531 29.828125 39.898438 29.949219 39.898438 C 30.0625 39.898438 30.101562 39.789062 30.101562 39.480469 L 30.101562 39.070312 L 30.398438 39.480469 C 30.570312 39.710938 30.75 39.898438 30.800781 39.898438 C 30.859375 39.898438 30.898438 39.632812 30.898438 39.300781 C 30.898438 38.640625 30.730469 38.46875 30.679688 39.070312 L 30.648438 39.449219 L 30.398438 39.078125 C 30.257812 38.867188 30.070312 38.699219 29.980469 38.699219 C 29.828125 38.699219 29.800781 38.789062 29.800781 39.300781 Z M 29.800781 39.300781 "/>
<path style=" stroke:none;fill-rule:nonzero;fill:rgb(0%,0%,0%);fill-opacity:1;" d="M 31.398438 39.300781 L 31.398438 39.898438 L 31.800781 39.898438 C 32.019531 39.898438 32.199219 39.851562 32.199219 39.800781 C 32.199219 39.742188 32.070312 39.699219 31.898438 39.699219 C 31.699219 39.699219 31.601562 39.648438 31.601562 39.550781 C 31.601562 39.449219 31.699219 39.398438 31.898438 39.398438 C 32.070312 39.398438 32.199219 39.351562 32.199219 39.300781 C 32.199219 39.242188 32.070312 39.199219 31.898438 39.199219 C 31.699219 39.199219 31.601562 39.148438 31.601562 39.050781 C 31.601562 38.949219 31.699219 38.898438 31.898438 38.898438 C 32.070312 38.898438 32.199219 38.851562 32.199219 38.800781 C 32.199219 38.742188 32.019531 38.699219 31.800781 38.699219 L 31.398438 38.699219 Z M 31.398438 39.300781 "/>
<path style=" stroke:none;fill-rule:nonzero;fill:rgb(0%,0%,0%);fill-opacity:1;" d="M 32.601562 39.300781 L 32.601562 39.898438 L 33 39.898438 C 33.21875 39.898438 33.398438 39.851562 33.398438 39.800781 C 33.398438 39.742188 33.269531 39.699219 33.101562 39.699219 C 32.8125 39.699219 32.800781 39.6875 32.800781 39.199219 C 32.800781 38.921875 32.757812 38.699219 32.699219 38.699219 C 32.640625 38.699219 32.601562 38.96875 32.601562 39.300781 Z M 32.601562 39.300781 "/>
</g>
</svg>
